<svg xmlns="http://www.w3.org/2000/svg" width="242" height="362" viewBox="1 1 242 362"><g id="g6555" transform="matrix(4, 0, 0, 4, 1, -1328.448547)"><rect id="rect2987-1" width="60" height="90" x=".25" y="332.602" rx="10" ry="10" style="fill:#fff;fill-opacity:1;fill-rule:evenodd;stroke:#000;stroke-width:.5;stroke-miterlimit:4;stroke-dasharray:none"/><rect id="rect3757-5" width="50" height="80" x="5" y="337.362" rx="5" ry="5" style="fill:#f55;fill-opacity:1;fill-rule:evenodd;stroke:none"/><path id="path3773-0-4-8-4-2" d="m 45,352.36216 c -22.09139,0 -40,17.90861 -40,40 0,5.52285 4.47715,10 10,10 22.09139,0 40,-17.90861 40,-40 0,-5.52285 -4.47715,-10 -10,-10 z" style="fill:#fff;fill-opacity:1;fill-rule:evenodd;stroke:none"/><path id="path3962-7" d="m 30,362.36217 c -5.52285,0 -10,4.47715 -10,10 l 0,10 c 0,5.52285 4.47715,10 10,10 5.52285,0 10,-4.47715 10,-10 l 0,-10 c 0,-5.52285 -4.47715,-10 -10,-10 z m 0,5 c 2.76142,0 5,2.23858 5,5 l 0,10 c 0,2.76142 -2.23858,5 -5,5 -2.76142,0 -5,-2.23858 -5,-5 l 0,-10 c 0,-2.76142 2.23858,-5 5,-5 z" style="fill:#f55;fill-opacity:1;fill-rule:evenodd;stroke:none"/><path id="path3962-7-1" d="m 12.5,339.86217 c -2.76143,0 -5,2.23857 -5,5 l 0,5 c 0,2.76143 2.23857,5 5,5 2.76142,0 5,-2.23857 5,-5 l 0,-5 c 0,-2.76143 -2.23858,-5 -5,-5 z m 0,2.5 c 1.38071,0 2.5,1.11929 2.5,2.5 l 0,5 c 0,1.38071 -1.11929,2.5 -2.5,2.5 -1.38071,0 -2.5,-1.11929 -2.5,-2.5 l 0,-5 c 0,-1.38071 1.11929,-2.5 2.5,-2.5 z" style="fill:#fff;fill-opacity:1;fill-rule:evenodd;stroke:none"/><path id="path3962-7-1-2" d="m 47.5,399.86217 c -2.76143,0 -5,2.23857 -5,5 l 0,5 c 0,2.76143 2.23857,5 5,5 2.76142,0 5,-2.23857 5,-5 l 0,-5 c 0,-2.76143 -2.23858,-5 -5,-5 z m 0,2.5 c 1.38071,0 2.5,1.11929 2.5,2.5 l 0,5 c 0,1.38071 -1.11929,2.5 -2.5,2.5 -1.38071,0 -2.5,-1.11929 -2.5,-2.5 l 0,-5 c 0,-1.38071 1.11929,-2.5 2.5,-2.5 z" style="fill:#fff;fill-opacity:1;fill-rule:evenodd;stroke:none"/></g></svg>